{"images":[{"name":"","uri":"1644498894392.png"}],"accessors":[{"componentType":5126,"min":[-272.54962158203125,85.8576889038086,-109.4441146850586],"bufferView":0,"max":[248.65097045898438,642.8707275390625,194.18287658691406],"count":171942,"type":"VEC3"},{"componentType":5126,"bufferView":1,"count":171942,"type":"VEC3"},{"componentType":5126,"bufferView":2,"count":171942,"type":"VEC2"},{"componentType":5125,"bufferView":3,"count":171942,"type":"SCALAR"}],"extensionsUsed":["MTL","avatar_shape_names","avatar_arcdata","avatar_glass_keypoints","Arc3DTech"],"textures":[{"name":"","source":0,"sampler":0}],"buffers":[{"byteLength":6189912,"name":"ArcsoftBuffer","uri":"1644498894392.bin"}],"bufferViews":[{"byteOffset":0,"byteLength":2063304,"buffer":0},{"byteOffset":2063304,"byteLength":2063304,"buffer":0},{"byteOffset":4126608,"byteLength":1375536,"buffer":0},{"byteOffset":5502144,"byteLength":687768,"buffer":0}],"samplers":[{"minFilter":9987,"name":"","wrapT":10497,"wrapS":10497,"magFilter":9729}],"scene":0,"nodes":[{"rotation":[0.0,0.0,0.0,1.0],"name":"","translation":[0.0,0.0,0.0],"scale":[1.0,1.0,1.0],"mesh":0}],"materials":[{"extensions":{"MTL":{"d":1.0,"Ns":5.0,"Ka":[0.429,0.535,0.382],"map_Kd":"1644498894392.png","Ks":[0.0,0.0,0.0],"Kd":[0.429,0.535,0.382],"illum":2.0}},"name":"","doubleSided":true,"pbrMetallicRoughness":{"baseColorTexture":{"index":0,"texCoord":0},"metallicFactor":1.0,"roughnessFactor":1.0},"alphaMode":"OPAQUE"}],"scenes":[{"nodes":[0]}],"asset":{"generator":"Arcsoftgltf v1.0","version":"2.0"},"meshes":[{"extensions":{"Arc3DTech":{"Model":"Human","ScanAngle":"-180.0;0.0;0.0;180.0","Date":"2 10,2022 14:13:46"}},"primitives":[{"indices":3,"material":0,"attributes":{"POSITION":0,"TEXCOORD_0":2,"NORMAL":1}}],"name":"ArcsoftMeshes0"}]}